<?xml version="1.0" standalone="no"?>
<!DOCTYPE svg PUBLIC "-//W3C//DTD SVG 20010904//EN"
 "http://www.w3.org/TR/2001/REC-SVG-20010904/DTD/svg10.dtd">
<svg version="1.0" xmlns="http://www.w3.org/2000/svg"
 width="400.000000pt" height="76.000000pt" viewBox="0 0 400.000000 76.000000"
 preserveAspectRatio="xMidYMid meet">
<metadata>
Created by potrace 1.16, written by Peter Selinger 2001-2019
</metadata>
<g transform="translate(0.000000,76.000000) scale(0.100000,-0.100000)"
fill="#000000" stroke="none">
<path d="M2845 720 c-3 -5 -3 -15 0 -20 4 -6 -5 -24 -20 -42 -33 -39 -30 -72
7 -76 14 -2 29 -10 32 -19 9 -22 -5 -193 -15 -193 -4 0 -10 -21 -12 -47 l-3
-48 -2 48 c-1 26 -6 47 -11 47 -5 0 -11 17 -15 39 -7 44 -44 86 -83 94 -38 7
-98 -19 -112 -49 -17 -38 -14 -123 4 -130 10 -4 15 -20 15 -45 0 -22 7 -47 17
-59 21 -24 59 -26 71 -4 8 15 10 15 15 0 8 -20 56 -21 63 -1 4 8 12 15 19 15
7 0 16 6 18 13 4 9 6 9 6 0 1 -7 8 -13 16 -13 8 0 15 -7 15 -15 0 -9 9 -15 25
-15 14 0 28 7 31 15 4 8 10 15 15 15 5 0 9 -7 9 -15 0 -10 10 -15 30 -15 20 0
30 5 30 15 0 8 7 15 15 15 8 0 15 5 15 12 0 6 10 -1 23 -15 24 -29 71 -37 81
-14 5 9 7 9 12 0 10 -22 57 -14 82 12 21 21 23 33 20 84 -2 51 0 61 15 65 25
6 22 43 -5 52 -20 6 -21 7 -4 20 23 17 17 48 -12 52 -16 3 -22 10 -22 28 0 14
-7 27 -15 30 -8 4 -15 15 -15 25 0 11 -7 19 -17 19 -17 1 -17 1 0 11 21 12 22
35 3 46 -8 4 -14 17 -13 28 2 15 -4 20 -23 20 -14 0 -29 6 -33 13 -13 19 -45
14 -52 -9 -4 -12 -16 -30 -26 -40 -27 -27 -24 -64 9 -88 l27 -21 -32 6 c-29 6
-33 4 -33 -15 0 -16 6 -21 25 -21 14 0 25 -4 25 -9 0 -5 -16 -5 -37 0 -21 5
-50 12 -65 15 -15 4 -29 15 -32 28 -9 35 -7 86 5 86 6 0 9 12 7 28 -2 22 -8
27 -28 26 -14 -1 -29 5 -33 12 -9 16 -23 18 -32 4z"/>
</g>
</svg>
