<svg xmlns="http://www.w3.org/2000/svg" viewBox="0 0 100 125" x="0px" y="0px"><title>Artboard 21</title><g><circle cx="40.28" cy="30.8" r="1.33" transform="translate(-8.2 15.92) rotate(-20.34)"/><path d="M96,63c-.48-2.11-4-2.45-5.36-2.14a3.3,3.3,0,0,0-.52.18,13,13,0,0,0-.35-2.91l.23,0a3.26,3.26,0,0,0,1.44-.33c1.27-.63,3.77-3.09,2.82-5s-4.43-1.48-5.71-.85A3.24,3.24,0,0,0,87.34,53a13.2,13.2,0,0,0-1.78-1.85,3.25,3.25,0,0,0,1.13-1c.81-1.17,1.8-4.53,0-5.77s-4.59.86-5.4,2c0,.05-.06.11-.09.17l-.67-2.72a2.86,2.86,0,0,0,1.37-.12c1.16-.4,3.56-2.25,2.94-4.05a2.67,2.67,0,0,0-2.31-1.55,5.55,5.55,0,0,0-2.49.15,2.87,2.87,0,0,0-.77.42l-.81-3.31a2.76,2.76,0,0,0,1.75.19c1.18-.26,3.75-1.81,3.34-3.65a2.64,2.64,0,0,0-2.1-1.79A5.48,5.48,0,0,0,79,30a2.82,2.82,0,0,0-.9.38,5.67,5.67,0,0,0-.5-1.12A2.83,2.83,0,0,0,79,28.46a5.49,5.49,0,0,0,1.13-2.19,2.64,2.64,0,0,0-.47-2.72A2.64,2.64,0,0,0,77,23.29a5.48,5.48,0,0,0-2.1,1.29,2.83,2.83,0,0,0-.75,1.87A8.67,8.67,0,0,0,73,26.11a2.82,2.82,0,0,0,.41-1.7c-.1-1.21-1.29-4-3.16-3.8a2.64,2.64,0,0,0-2.05,1.84,5.48,5.48,0,0,0-.47,2.42,2.82,2.82,0,0,0,.45,1.3,9.75,9.75,0,0,0-5.31,3.3,6,6,0,0,0,2.37,9.61,9.17,9.17,0,0,0,3.72.76l.4,0A27.54,27.54,0,0,0,68,45l-2.24-1.59-.05,0,0,0-3.59-2a1,1,0,1,0-1,1.75l1.55.85-1,.32a1,1,0,1,0,.62,1.9L65,45.29l2.67,1.89c-.11,1-.19,2.05-.2,3.11L66,49.62h-.06l-.05,0-3.9-1.23a1,1,0,0,0-.6,1.91l1.68.53-.92.51a1,1,0,1,0,1,1.75l2.51-1.4,1.89.85c0,.83.09,1.66.19,2.5.6,5.44,1.5,9.24,2.88,12.25L69.4,68.82c-.06.09-.09.18-.12.18H66.83c-.55,0-.83.67-.83,1.23V80H63V70.23A1.51,1.51,0,0,0,61.7,69H61V56.86A10.71,10.71,0,0,0,50.32,46.11a10.48,10.48,0,0,0-1.89.17L45.6,32a2.76,2.76,0,0,0,.05-1.21h.11a3.3,3.3,0,0,0,1.12-.2,3.26,3.26,0,0,0,1.86-1.69A6.62,6.62,0,0,0,49.22,26a3,3,0,0,0-1.44-2.81,3,3,0,0,0-3.08.69,6.61,6.61,0,0,0-1.91,2.21,3.27,3.27,0,0,0-.2.56,3.87,3.87,0,0,0-.51-.27l-1.1-3a1,1,0,0,0-.11-.18,1.33,1.33,0,1,0-1.79.67,1,1,0,0,0,0,.21L39.83,26a3.88,3.88,0,0,0-2.43,1.37l-4.07,5a4.19,4.19,0,0,0,5.92,5.92l.3-.25,2.58,12.08A10.58,10.58,0,0,0,40,56.86V69H38.7c-.55,0-.7.67-.7,1.23V80H34V70.16c0-.55-.38-1.16-.94-1.16H31V64A13,13,0,1,0,5,64v6.47A2.86,2.86,0,0,0,7.8,73.5c.54,0,1.2-.15,1.2-.39V84.66c0,.55.51,1.34,1.06,1.34H11.7s0-.13,0-.11a4,4,0,0,0,4.06,4,4,4,0,0,0,4.06-3.94s0,.06,0,.06H22.7s0-.13,0-.11a4.06,4.06,0,0,0,8.13,0s0,.06,0,.06h2.26c.55,0,.94-.78.94-1.34V82h4v2.73c0,.55.15,1.27.7,1.27h1.63s0-.1,0-.07a4.06,4.06,0,0,0,8.13,0s0,0,0,0h2.89s0-.1,0-.07a4.06,4.06,0,0,0,8.13,0s0,0,0,0H61.7A1.56,1.56,0,0,0,63,84.73V82h3v2.73c0,.55.28,1.27.83,1.27h1.63s0-.1,0-.07a4.06,4.06,0,0,0,8.13,0s0,0,0,0h2.89s0-.1,0-.07a4.06,4.06,0,0,0,8.13,0s0,0,0,0h2.26A1.42,1.42,0,0,0,91,84.73V70.23c0-.44,0-.8-1-.93V67.11a10,10,0,0,0,1.33.25,3.66,3.66,0,0,0,.78-.08C93.49,67,96.52,65.14,96,63Zm-6.57-9.28a4.29,4.29,0,0,1,1.77-.34,2,2,0,0,1,1.26.27c.12.39-.92,1.88-1.9,2.36a1.28,1.28,0,0,1-1.13-2.3ZM80.2,40.65a.88.88,0,0,1,.51-.45,2.76,2.76,0,0,1,.85-.11,2.87,2.87,0,0,1,1.4.28,3.47,3.47,0,0,1-1.68,1.51.88.88,0,0,1-1.08-1.22ZM9,70.43a1,1,0,1,1-2,0V64a11,11,0,1,1,22,0v5H15V66.51a3,3,0,1,0-6,0ZM13,69H11V66.51a1,1,0,1,1,2,0Zm2.75,18.79a2.06,2.06,0,1,1,2.06-2.06A2.06,2.06,0,0,1,15.75,87.79Zm11,0a2.06,2.06,0,1,1,2.06-2.06A2.06,2.06,0,0,1,26.75,87.79ZM32,84H30.23c-.71-2-2-2-3.48-2S24,82,23.27,84h-4c-.71-2-2-2-3.48-2S13,82,12.27,84H11V71H32ZM44.61,26.94a4.14,4.14,0,0,1,2.26-2h.06c.34.23.46,2,0,3a1.28,1.28,0,0,1-1.7.61h0A1.28,1.28,0,0,1,44.61,26.94ZM38,36.82l-.08.07a2.19,2.19,0,0,1-3.09-3.09l.07-.08,4.1-5a1.87,1.87,0,0,1,1.37-.7h.1a1.87,1.87,0,0,1,1.33.55l1.39,1.39a1.89,1.89,0,0,1-.14,2.8Zm4,20a8.58,8.58,0,0,1,1.92-5.7,1,1,0,0,0,.18-.9L41.36,36.67l2.73-2.23,2.62,13.24a1,1,0,0,0,0,.13,1,1,0,0,0,1.2.65l.09,0a8.28,8.28,0,0,1,2.29-.32A8.7,8.7,0,0,1,59,56.86V69H55V65.42a4.5,4.5,0,1,0-9,0V69H42ZM48,69V65.42a2.5,2.5,0,1,1,5,0V69ZM44.39,87.85a2.06,2.06,0,1,1,2.06-2.06A2.06,2.06,0,0,1,44.39,87.85Zm11,0a2.06,2.06,0,1,1,2.06-2.06A2.06,2.06,0,0,1,55.39,87.85ZM61,84H58.87a4,4,0,0,0-7,0h-4a4.52,4.52,0,0,0-3.48-2,4.52,4.52,0,0,0-3.48,2H40V71H61ZM82.95,47.58c.63-.9,2.26-1.7,2.62-1.53s.11,2.09-.52,3a1.28,1.28,0,1,1-2.1-1.46Zm-4-15.23a.85.85,0,0,1,.54-.37,2,2,0,0,1,.42,0,3.34,3.34,0,0,1,1.73.44,3.44,3.44,0,0,1-1.79,1.26.85.85,0,0,1-.9-1.29Zm-2.58-6.41a3.38,3.38,0,0,1,2-.9,3.43,3.43,0,0,1-.75,2.06.85.85,0,0,1-1.25-1.16Zm-5.87-3.32a3.44,3.44,0,0,1,1,1.95.85.85,0,0,1-.78.92.86.86,0,0,1-.62-.2.85.85,0,0,1-.3-.58A3.44,3.44,0,0,1,70.45,22.63ZM66.09,37.25a4,4,0,0,1-1.61-6.55,7.75,7.75,0,0,1,4.25-2.6,8.63,8.63,0,0,1,2.06-.26,7.16,7.16,0,0,1,2.91.59A4,4,0,0,1,75.31,35a8.21,8.21,0,0,1-9.22,2.27Zm3.57,17.52a34.5,34.5,0,0,1-.13-6.27l1.2.85a1,1,0,1,0,1.16-1.63l-2.11-1.49a25.24,25.24,0,0,1,1.93-6.75,9.79,9.79,0,0,0,5-3l3,12.36a.92.92,0,0,0,.05.16l.5,1.17a.87.87,0,0,0,.5.55A11.09,11.09,0,0,1,88,61.15V69H83.93l.32-.35a5.42,5.42,0,0,0-1.43-7.56,6.71,6.71,0,0,0-9.29,1.79l-1.64,2.4A42.17,42.17,0,0,1,69.66,54.78Zm5.52,9.13a4.68,4.68,0,0,1,6.51-1.17,3.38,3.38,0,0,1,.91,4.75L81.51,69H71.62ZM72.52,87.85a2.06,2.06,0,1,1,2.06-2.06A2.06,2.06,0,0,1,72.52,87.85Zm11,0a2.06,2.06,0,1,1,2.06-2.06A2.06,2.06,0,0,1,83.52,87.85ZM89,84H87a4,4,0,0,0-7,0H76a4,4,0,0,0-7,0H68V71H89Zm2.7-18.67c-.33.08-.68-.17-1-.35s-.49,0-.57-1h-.08s-.08.25-.08.19v-.34c0-.15.16-.3.25-.44a1.36,1.36,0,0,1,.84-.57,3.09,3.09,0,0,1,.66-.06,3.53,3.53,0,0,1,2.33.69C94.11,63.88,92.76,65.09,91.7,65.33Z"/><circle cx="67.79" cy="30.36" r="0.75"/><circle cx="71.89" cy="31.11" r="0.75"/><path d="M71.59,35.19a.5.5,0,0,0-.71-.05,3.28,3.28,0,0,1-3,.25c-1.25-.4-2.22-1.3-2.3-2.12a.5.5,0,0,0-1,.1,4,4,0,0,0,3,3,5.49,5.49,0,0,0,1.69.28,3.47,3.47,0,0,0,2.26-.72A.5.5,0,0,0,71.59,35.19Z"/><circle cx="10.42" cy="59.39" r="1.33" transform="translate(-19.99 7.32) rotate(-20.34)"/><path d="M17.54,64.61a5.21,5.21,0,0,0,2.49-.7c2.46-1.34,3.19-3.64,1.91-6-1.41-2.57-4.78-4.6-7-3.38s-2.35,5.17-.94,7.74A4,4,0,0,0,17.54,64.61Zm-1.67-8.3a1.18,1.18,0,0,1,.57-.13,5.26,5.26,0,0,1,3.74,2.71c.28.51,1.12,2-1.11,3.27s-3.07-.32-3.35-.83C14.75,59.55,14.83,56.87,15.87,56.3Z"/></g><text x="0" y="115" fill="#000000" font-size="5px" font-weight="bold" font-family="'Helvetica Neue', Helvetica, Arial-Unicode, Arial, Sans-serif">Created by Maria Kislitsina</text><text x="0" y="120" fill="#000000" font-size="5px" font-weight="bold" font-family="'Helvetica Neue', Helvetica, Arial-Unicode, Arial, Sans-serif">from the Noun Project</text></svg>